<svg xmlns="http://www.w3.org/2000/svg" xmlns:xlink="http://www.w3.org/1999/xlink" width="500" zoomAndPan="magnify" viewBox="0 0 375 374.999991" height="500" preserveAspectRatio="xMidYMid meet" version="1.0"><defs><clipPath id="06c0c7b030"><path d="M 34.089844 0 L 340.839844 0 L 340.839844 374 L 34.089844 374 Z M 34.089844 0 " clip-rule="nonzero"/></clipPath></defs><g clip-path="url(#06c0c7b030)"><path fill="#00bf63" d="M 34.78125 50.90625 C 34.78125 22.789062 57.570312 0 85.683594 0 L 289.304688 0 C 317.421875 0 340.210938 22.789062 340.210938 50.90625 L 340.210938 356.335938 C 340.210938 362.0625 337.320312 367.402344 332.527344 370.535156 C 327.738281 373.667969 321.6875 374.175781 316.441406 371.882812 L 255.367188 345.160156 L 194.296875 371.882812 C 189.960938 373.777344 185.03125 373.777344 180.695312 371.882812 L 119.621094 345.160156 L 58.550781 371.882812 C 53.304688 374.175781 47.253906 373.667969 42.460938 370.535156 C 37.667969 367.402344 34.78125 362.0625 34.78125 356.335938 Z M 85.683594 33.9375 C 76.3125 33.9375 68.71875 41.535156 68.71875 50.90625 L 68.71875 330.390625 L 112.820312 311.09375 C 117.15625 309.199219 122.085938 309.199219 126.421875 311.09375 L 187.496094 337.8125 L 248.566406 311.09375 C 252.902344 309.199219 257.835938 309.199219 262.167969 311.09375 L 306.273438 330.390625 L 306.273438 50.90625 C 306.273438 41.535156 298.675781 33.9375 289.304688 33.9375 Z M 85.683594 33.9375 " fill-opacity="1" fill-rule="evenodd"/></g><path fill="#00bf63" d="M 94.167969 152.714844 L 204.464844 152.714844 L 204.464844 186.652344 L 94.167969 186.652344 Z M 94.167969 152.714844 " fill-opacity="1" fill-rule="evenodd"/><path fill="#00bf63" d="M 94.167969 220.589844 L 204.464844 220.589844 L 204.464844 254.523438 L 94.167969 254.523438 Z M 94.167969 220.589844 " fill-opacity="1" fill-rule="evenodd"/><path fill="#00bf63" d="M 246.882812 152.714844 L 280.820312 152.714844 L 280.820312 186.652344 L 246.882812 186.652344 Z M 246.882812 152.714844 " fill-opacity="1" fill-rule="evenodd"/><path fill="#00bf63" d="M 246.882812 220.589844 L 280.820312 220.589844 L 280.820312 254.523438 L 246.882812 254.523438 Z M 246.882812 220.589844 " fill-opacity="1" fill-rule="evenodd"/><path fill="#00bf63" d="M 94.167969 84.839844 L 204.464844 84.839844 L 204.464844 118.777344 L 94.167969 118.777344 Z M 94.167969 84.839844 " fill-opacity="1" fill-rule="evenodd"/><path fill="#00bf63" d="M 246.882812 84.839844 L 280.820312 84.839844 L 280.820312 118.777344 L 246.882812 118.777344 Z M 246.882812 84.839844 " fill-opacity="1" fill-rule="evenodd"/></svg>